<?xml version="1.0" encoding="UTF-8" standalone="no"?>
<!-- Created with Inkscape (http://www.inkscape.org/) -->

<svg
   xmlns:rendltx="http://NOTSET"
   xmlns:dc="http://purl.org/dc/elements/1.1/"
   xmlns:cc="http://creativecommons.org/ns#"
   xmlns:rdf="http://www.w3.org/1999/02/22-rdf-syntax-ns#"
   xmlns:svg="http://www.w3.org/2000/svg"
   xmlns="http://www.w3.org/2000/svg"
   xmlns:xlink="http://www.w3.org/1999/xlink"
   xmlns:sodipodi="http://sodipodi.sourceforge.net/DTD/sodipodi-0.dtd"
   xmlns:inkscape="http://www.inkscape.org/namespaces/inkscape"
   width="297mm"
   height="210mm"
   viewBox="0 0 297 210"
   version="1.1"
   id="svg6935"
   inkscape:version="0.92.4 (5da689c313, 2019-01-14)"
   sodipodi:docname="time_scale.svg">
  <defs
     id="defs6929">
    <inkscape:path-effect
       effect="bspline"
       id="path-effect9435"
       is_visible="true"
       weight="33.333333"
       steps="2"
       helper_size="0"
       apply_no_weight="true"
       apply_with_weight="true"
       only_selected="false" />
    <inkscape:path-effect
       effect="bspline"
       id="path-effect9431"
       is_visible="true"
       weight="33.333333"
       steps="2"
       helper_size="0"
       apply_no_weight="true"
       apply_with_weight="true"
       only_selected="false" />
    <inkscape:path-effect
       effect="bspline"
       id="path-effect9423"
       is_visible="true"
       weight="33.333333"
       steps="2"
       helper_size="0"
       apply_no_weight="true"
       apply_with_weight="true"
       only_selected="false" />
  </defs>
  <sodipodi:namedview
     id="base"
     pagecolor="#ffffff"
     bordercolor="#666666"
     borderopacity="1.0"
     inkscape:pageopacity="0.0"
     inkscape:pageshadow="2"
     inkscape:zoom="1.0003729"
     inkscape:cx="372.69906"
     inkscape:cy="384.84542"
     inkscape:document-units="mm"
     inkscape:current-layer="ltx-render-layer"
     showgrid="false"
     inkscape:window-width="1920"
     inkscape:window-height="1017"
     inkscape:window-x="-8"
     inkscape:window-y="32"
     inkscape:window-maximized="1"
     showguides="false"
     units="mm"
     inkscape:snap-global="false">
    <inkscape:grid
       id="grid7482"
       type="xygrid" />
  </sodipodi:namedview>
  <metadata
     id="metadata6932">
    <rdf:RDF>
      <cc:Work
         rdf:about="">
        <dc:format>image/svg+xml</dc:format>
        <dc:type
           rdf:resource="http://purl.org/dc/dcmitype/StillImage" />
        <dc:title />
      </cc:Work>
    </rdf:RDF>
  </metadata>
  <g
     inkscape:label="Layer 1"
     inkscape:groupmode="layer"
     id="layer1"
     transform="translate(0,-87)"
     style="display:inline">
    <path
       style="fill:none;stroke:#000000;stroke-width:0.33088323px;stroke-linecap:butt;stroke-linejoin:miter;stroke-opacity:1"
       d="m 12.859465,183.08234 269.290625,0.52733 h 0.82987"
       id="path9386"
       inkscape:connector-curvature="0" />
    <path
       style="fill:none;stroke:#000000;stroke-width:0.32823563px;stroke-linecap:butt;stroke-linejoin:miter;stroke-opacity:1"
       d="m 13.655537,220.2023 269.872783,0.52739"
       id="path9388"
       inkscape:connector-curvature="0" />
    <path
       style="fill:none;stroke:#000000;stroke-width:0.70759803;stroke-linecap:butt;stroke-linejoin:miter;stroke-miterlimit:4;stroke-dasharray:4.24558855, 0.70759808;stroke-dashoffset:0;stroke-opacity:1"
       d="m 94.71942,113.91683 c 0.288581,136.12024 0.288581,135.74001 0.288581,135.74001"
       id="path9417"
       inkscape:connector-curvature="0" />
    <path
       style="fill:none;stroke:#000000;stroke-width:0.71074247;stroke-linecap:butt;stroke-linejoin:miter;stroke-miterlimit:4;stroke-dasharray:4.26445449, 0.71074241;stroke-dashoffset:0;stroke-opacity:1"
       d="m 198.93938,113.91645 c 0.86546,132.76819 0.86546,132.38445 0.86546,132.38445"
       id="path9419"
       inkscape:connector-curvature="0" />
    <path
       style="fill:none;stroke:#000000;stroke-width:0.26458332px;stroke-linecap:butt;stroke-linejoin:miter;stroke-opacity:1"
       d="m 37.035096,177.5027 c 7.243907,-0.27015 14.487321,-0.54028 21.623877,-2.07204 7.136556,-1.53175 14.165671,-4.32497 21.194398,-7.11803"
       id="path9421"
       inkscape:connector-curvature="0"
       inkscape:path-effect="#path-effect9423"
       inkscape:original-d="m 37.035096,177.5027 c 7.243902,-0.27029 14.487316,-0.54042 21.730926,-0.81042 7.029484,-2.79343 14.058597,-5.58665 21.087349,-8.37965"
       sodipodi:nodetypes="ccc"
       transform="matrix(1.428501,0,0,2.5705276,-21.691229,-247.76598)" />
    <path
       style="fill:none;stroke:#000000;stroke-width:0.36500001;stroke-linecap:butt;stroke-linejoin:miter;stroke-miterlimit:4;stroke-dasharray:none;stroke-opacity:1"
       d="m 106.32285,178.51086 c 7.67031,-0.0882 15.34036,-0.17633 23.5394,-0.35265 8.19903,-0.17633 16.92722,-0.44081 28.7847,-1.63098 11.85748,-1.19018 26.84534,-3.30611 41.83245,-5.42194"
       id="path9429"
       inkscape:connector-curvature="0"
       inkscape:path-effect="#path-effect9431"
       inkscape:original-d="m 106.32285,178.51086 c 7.67031,-0.0884 15.34036,-0.17659 23.01016,-0.26449 8.72826,-0.26474 17.45645,-0.52923 26.18399,-0.79344 14.9874,-2.1161 29.97526,-4.23203 44.9624,-6.34764"
       transform="matrix(1.0700779,0,0,1.4101331,-17.321692,-70.682377)"
       sodipodi:nodetypes="cccc" />
    <path
       style="fill:none;stroke:#000000;stroke-width:0.26458332px;stroke-linecap:butt;stroke-linejoin:miter;stroke-opacity:1"
       d="m 203.38873,184.32952 c 6.6124,-0.44083 13.22452,-0.88164 22.74597,-1.71918 9.52145,-0.83754 21.95222,-2.0718 28.6083,-6.43593 6.65607,-4.36413 7.53769,-11.85786 8.46336,-18.29346 0.92567,-6.4356 1.89552,-11.81385 2.86525,-17.1914"
       id="path9433"
       inkscape:connector-curvature="0"
       inkscape:path-effect="#path-effect9435"
       inkscape:original-d="m 203.38873,184.32952 c 6.61238,-0.44107 13.2245,-0.88188 19.83635,-1.32243 12.43105,-1.23452 24.86182,-2.46878 37.29234,-3.70278 0.88188,-7.494 1.7635,-14.98773 2.64485,-22.4812 0.96997,-5.37772 1.93983,-10.75597 2.90934,-16.13356"
       transform="matrix(1.0915461,0,0,1.4099524,-21.33692,-89.669228)"
       sodipodi:nodetypes="ccccc" />
    <path
       style="fill:none;stroke:#000000;stroke-width:0.70092529;stroke-linecap:butt;stroke-linejoin:miter;stroke-miterlimit:4;stroke-dasharray:4.20555125, 0.7009252;stroke-dashoffset:0;stroke-opacity:1"
       d="m 30.772929,116.34022 c 0.288702,133.50206 0.288702,133.12915 0.288702,133.12915"
       id="path9417-1"
       inkscape:connector-curvature="0" />
    <path
       style="fill:none;stroke:#000000;stroke-width:0.70092529;stroke-linecap:butt;stroke-linejoin:miter;stroke-miterlimit:4;stroke-dasharray:4.20555125, 0.7009252;stroke-dashoffset:0;stroke-opacity:1"
       d="m 259.13243,112.23817 c 0.28871,133.50209 0.28871,133.12917 0.28871,133.12917"
       id="path9417-6"
       inkscape:connector-curvature="0" />
  </g>
  <g
     inkscape:groupmode="layer"
     id="layer3"
     inkscape:label="text"
     style="display:none">
    <text
       xml:space="preserve"
       style="font-style:normal;font-weight:normal;font-size:10.58333302px;line-height:1.25;font-family:sans-serif;text-align:center;letter-spacing:0px;word-spacing:0px;direction:ltr;text-anchor:middle;fill:#000000;fill-opacity:1;stroke:none;stroke-width:0.26458332"
       x="127.74611"
       y="120.60419"
       id="text9460"><tspan
         sodipodi:role="line"
         id="tspan9458"
         x="127.74611"
         y="120.60419"
         style="stroke-width:0.26458332">$t=t^*$</tspan></text>
    <text
       xml:space="preserve"
       style="font-style:normal;font-weight:normal;font-size:4.16538811px;line-height:1.25;font-family:sans-serif;text-align:center;letter-spacing:0px;word-spacing:0px;direction:ltr;text-anchor:middle;display:inline;fill:#000000;fill-opacity:1;stroke:none;stroke-width:0.1041347"
       x="316.47043"
       y="81.985062"
       id="text9460-7"
       transform="scale(0.6999015,1.4287725)"><tspan
         sodipodi:role="line"
         id="tspan9458-4"
         x="316.47043"
         y="81.985062"
         style="stroke-width:0.1041347">$t=\epsilon^{-1}\delta_-$</tspan></text>
    <text
       xml:space="preserve"
       style="font-style:normal;font-weight:normal;font-size:5.69482946px;line-height:1.25;font-family:sans-serif;text-align:center;letter-spacing:0px;word-spacing:0px;direction:ltr;text-anchor:middle;display:inline;fill:#000000;fill-opacity:1;stroke:none;stroke-width:0.14237075"
       x="261.21317"
       y="119.61069"
       id="text9460-1"
       transform="scale(1.0261334,0.97453215)"><tspan
         sodipodi:role="line"
         id="tspan9458-0"
         x="261.21317"
         y="119.61069"
         style="stroke-width:0.14237075">$t=T$</tspan></text>
    <text
       xml:space="preserve"
       style="font-style:normal;font-weight:normal;font-size:6.39608812px;line-height:1.25;font-family:sans-serif;text-align:center;letter-spacing:0px;word-spacing:0px;direction:ltr;text-anchor:middle;display:inline;fill:#000000;fill-opacity:1;stroke:none;stroke-width:0.1599022"
       x="32.193405"
       y="125.2001"
       id="text9460-5"
       transform="scale(1.0838669,0.92262253)"><tspan
         sodipodi:role="line"
         id="tspan9458-6"
         x="32.193405"
         y="125.2001"
         style="stroke-width:0.1599022">$t=0$</tspan></text>
    <text
       xml:space="preserve"
       style="font-style:normal;font-weight:normal;font-size:7.45368576px;line-height:1.25;font-family:sans-serif;text-align:center;letter-spacing:0px;word-spacing:0px;direction:ltr;text-anchor:middle;display:inline;fill:#000000;fill-opacity:1;stroke:none;stroke-width:0.18634214"
       x="64.534859"
       y="139.33516"
       id="text9460-74"
       transform="scale(0.94846758,1.0543323)"><tspan
         sodipodi:role="line"
         id="tspan9458-3"
         x="64.534859"
         y="139.33516"
         style="stroke-width:0.18634214">$\sigma_0$</tspan></text>
    <text
       xml:space="preserve"
       style="font-style:normal;font-weight:normal;font-size:5.74228144px;line-height:1.25;font-family:sans-serif;text-align:center;letter-spacing:0px;word-spacing:0px;direction:ltr;text-anchor:middle;display:inline;fill:#000000;fill-opacity:1;stroke:none;stroke-width:0.14355703"
       x="137.1073"
       y="134.60814"
       id="text9460-0"
       transform="scale(0.91908144,1.0880429)"><tspan
         sodipodi:role="line"
         id="tspan9458-7"
         x="137.1073"
         y="134.60814"
         style="stroke-width:0.14355703">$\sigma^*$</tspan></text>
    <text
       xml:space="preserve"
       style="font-style:normal;font-weight:normal;font-size:6.70467424px;line-height:1.25;font-family:sans-serif;text-align:center;letter-spacing:0px;word-spacing:0px;direction:ltr;text-anchor:middle;display:inline;fill:#000000;fill-opacity:1;stroke:none;stroke-width:0.16761686"
       x="259.64227"
       y="124.65427"
       id="text9460-9"
       transform="scale(0.85153265,1.1743531)"><tspan
         sodipodi:role="line"
         id="tspan9458-68"
         x="259.64227"
         y="124.65427"
         style="stroke-width:0.16761686">$\sigma_m$</tspan></text>
    <text
       xml:space="preserve"
       style="font-style:normal;font-weight:normal;font-size:6.41061926px;line-height:1.25;font-family:sans-serif;text-align:center;letter-spacing:0px;word-spacing:0px;direction:ltr;text-anchor:middle;display:inline;fill:#000000;fill-opacity:1;stroke:none;stroke-width:0.16026548"
       x="303.08813"
       y="131.86093"
       id="text9460-03"
       transform="scale(0.90792308,1.1014149)"><tspan
         sodipodi:role="line"
         id="tspan9458-8"
         x="303.08813"
         y="131.86093"
         style="stroke-width:0.16026548">$\sigma_T$</tspan></text>
    <text
       xml:space="preserve"
       style="font-style:normal;font-weight:normal;font-size:10.58333302px;line-height:1.25;font-family:sans-serif;text-align:center;letter-spacing:0px;word-spacing:0px;direction:ltr;text-anchor:middle;display:inline;fill:#000000;fill-opacity:1;stroke:none;stroke-width:0.26458332"
       x="26.949017"
       y="101.13055"
       id="text9460-07"><tspan
         sodipodi:role="line"
         id="tspan9458-34"
         x="26.949017"
         y="101.13055"
         style="stroke-width:0.26458332">$t$</tspan></text>
    <text
       xml:space="preserve"
       style="font-style:normal;font-weight:normal;font-size:7.75751352px;line-height:1.25;font-family:sans-serif;text-align:center;letter-spacing:0px;word-spacing:0px;direction:ltr;text-anchor:middle;display:inline;fill:#000000;fill-opacity:1;stroke:none;stroke-width:0.19393785"
       x="27.275679"
       y="115.27681"
       id="text9460-05"
       transform="scale(0.86719429,1.1531441)"><tspan
         sodipodi:role="line"
         id="tspan9458-9"
         x="27.275679"
         y="115.27681"
         style="stroke-width:0.19393785">$\sigma$</tspan></text>
    <text
       xml:space="preserve"
       style="font-style:normal;font-weight:normal;font-size:6.27152061px;line-height:1.25;font-family:sans-serif;text-align:center;letter-spacing:0px;word-spacing:0px;direction:ltr;text-anchor:middle;display:inline;fill:#000000;fill-opacity:1;stroke:none;stroke-width:0.15678802"
       x="74.775673"
       y="116.80857"
       id="text9460-4"
       transform="scale(0.96539502,1.0358454)"><tspan
         sodipodi:role="line"
         id="tspan9458-1"
         x="74.775673"
         y="116.80857"
         style="stroke-width:0.15678802">$u_s$</tspan></text>
    <text
       xml:space="preserve"
       style="font-style:normal;font-weight:normal;font-size:8.5353899px;line-height:1.25;font-family:sans-serif;text-align:center;letter-spacing:0px;word-spacing:0px;direction:ltr;text-anchor:middle;display:inline;fill:#000000;fill-opacity:1;stroke:none;stroke-width:0.21338473"
       x="168.81093"
       y="99.868286"
       id="text9460-037"
       transform="scale(0.98378604,1.0164812)"><tspan
         sodipodi:role="line"
         id="tspan9458-17"
         x="168.81093"
         y="99.868286"
         style="stroke-width:0.21338473">$\bar{u}_*$</tspan></text>
    <text
       xml:space="preserve"
       style="font-style:normal;font-weight:normal;font-size:8.63415718px;line-height:1.25;font-family:sans-serif;text-align:center;letter-spacing:0px;word-spacing:0px;direction:ltr;text-anchor:middle;display:inline;fill:#000000;fill-opacity:1;stroke:none;stroke-width:0.21585391"
       x="251.08466"
       y="89.255028"
       id="text9460-6"
       transform="scale(0.93635824,1.0679673)"><tspan
         sodipodi:role="line"
         id="tspan9458-40"
         x="251.08466"
         y="89.255028"
         style="stroke-width:0.21585391">$u_*$</tspan></text>
  </g>
  <g
     rendltx:math="False"
     rendltx:newline="False"
     rendltx:fontsize="10.0"
     rendltx:depth="0.0"
     rendltx:scale="3.0"
     rendltx:packages="amsmath,amssymb"
     rendltx:preamble=""
     id="ltx-render-layer"
     inkscape:groupmode="layer"
     inkscape:label="Rendered Latex"
     style="display:inline">
    <g
       id="lx-text9460"
       transform="matrix(0.29166894,0,0,0.27889513,96.51577,103.86925)">
      <defs
         id="defs1447">
        <g
           id="g1445">
          <symbol
             id="lx-text9460-glyph0-0"
             overflow="visible"
             style="overflow:visible">
            <path
               id="path1427"
               d=""
               style="stroke:none"
               inkscape:connector-curvature="0" />
          </symbol>
          <symbol
             id="lx-text9460-glyph0-1"
             overflow="visible"
             style="overflow:visible">
            <path
               id="path1430"
               d="m 6.15625,-11.953125 h 2.8125 c 0.59375,0 0.890625,0 0.890625,-0.59375 0,-0.34375 -0.296875,-0.34375 -0.828125,-0.34375 H 6.390625 C 7.46875,-17.125 7.625,-17.71875 7.625,-17.90625 c 0,-0.5 -0.359375,-0.8125 -0.875,-0.8125 -0.078125,0 -0.921875,0.03125 -1.1875,1.078125 l -1.171875,4.75 h -2.8125 c -0.59375,0 -0.890625,0 -0.890625,0.578125 0,0.359375 0.234375,0.359375 0.84375,0.359375 h 2.625 c -2.15625,8.484375 -2.265625,9 -2.265625,9.53125 0,1.609375 1.125,2.75 2.75,2.75 3.046875,0 4.75,-4.359375 4.75,-4.609375 0,-0.296875 -0.25,-0.296875 -0.359375,-0.296875 -0.265625,0 -0.296875,0.09375 -0.453125,0.421875 -1.28125,3.109375 -2.875,3.828125 -3.890625,3.828125 -0.625,0 -0.921875,-0.390625 -0.921875,-1.375 0,-0.71875 0.0625,-0.921875 0.1875,-1.4375 z m 0,0"
               style="stroke:none"
               inkscape:connector-curvature="0" />
          </symbol>
          <symbol
             id="lx-text9460-glyph1-0"
             overflow="visible"
             style="overflow:visible">
            <path
               id="path1433"
               d=""
               style="stroke:none"
               inkscape:connector-curvature="0" />
          </symbol>
          <symbol
             id="lx-text9460-glyph1-1"
             overflow="visible"
             style="overflow:visible">
            <path
               id="path1436"
               d="m 20.53125,-9.78125 c 0.453125,0 1.015625,0 1.015625,-0.59375 0,-0.59375 -0.5625,-0.59375 -0.984375,-0.59375 H 2.65625 c -0.421875,0 -0.984375,0 -0.984375,0.59375 0,0.59375 0.5625,0.59375 1.015625,0.59375 z m 0.03125,5.8125 c 0.421875,0 0.984375,0 0.984375,-0.609375 0,-0.59375 -0.5625,-0.59375 -1.015625,-0.59375 H 2.6875 c -0.453125,0 -1.015625,0 -1.015625,0.59375 0,0.609375 0.5625,0.609375 0.984375,0.609375 z m 0,0"
               style="stroke:none"
               inkscape:connector-curvature="0" />
          </symbol>
          <symbol
             id="lx-text9460-glyph2-0"
             overflow="visible"
             style="overflow:visible">
            <path
               id="path1439"
               d=""
               style="stroke:none"
               inkscape:connector-curvature="0" />
          </symbol>
          <symbol
             id="lx-text9460-glyph2-1"
             overflow="visible"
             style="overflow:visible">
            <path
               id="path1442"
               d="M 6.75,-5.203125 C 8.46875,-5.96875 9.25,-6.25 9.765625,-6.5 c 0.40625,-0.171875 0.59375,-0.25 0.59375,-0.65625 0,-0.359375 -0.28125,-0.671875 -0.65625,-0.671875 -0.140625,0 -0.1875,0 -0.4375,0.1875 l -2.84375,1.90625 0.3125,-3.09375 c 0.046875,-0.375 0,-0.90625 -0.625,-0.90625 -0.25,0 -0.65625,0.171875 -0.65625,0.640625 0,0.1875 0.09375,0.8125 0.109375,1.015625 0.046875,0.359375 0.1875,1.859375 0.234375,2.34375 L 2.96875,-7.640625 c -0.203125,-0.125 -0.265625,-0.1875 -0.453125,-0.1875 -0.375,0 -0.65625,0.3125 -0.65625,0.671875 0,0.421875 0.25,0.53125 0.4375,0.609375 l 3.15625,1.3125 c -1.703125,0.75 -2.484375,1.046875 -3,1.296875 -0.40625,0.171875 -0.59375,0.25 -0.59375,0.65625 0,0.359375 0.28125,0.671875 0.65625,0.671875 0.140625,0 0.1875,0 0.4375,-0.1875 l 2.84375,-1.90625 -0.34375,3.359375 c 0,0.46875 0.40625,0.625 0.65625,0.625 0.25,0 0.640625,-0.15625 0.640625,-0.625 0,-0.1875 -0.078125,-0.8125 -0.09375,-1.015625 C 6.609375,-2.71875 6.46875,-4.21875 6.421875,-4.703125 L 8.9375,-3.03125 c 0.546875,0.421875 0.578125,0.421875 0.765625,0.421875 0.375,0 0.65625,-0.3125 0.65625,-0.671875 0,-0.421875 -0.25,-0.53125 -0.4375,-0.609375 z m 0,0"
               style="stroke:none"
               inkscape:connector-curvature="0" />
          </symbol>
        </g>
      </defs>
      <g
         id="lx-text9460-surface1">
        <g
           id="g1451"
           style="fill:#000000;fill-opacity:1">
          <use
             id="use1449"
             y="0"
             x="0"
             xlink:href="#lx-text9460-glyph0-1"
             width="100%"
             height="100%" />
        </g>
        <g
           id="g1455"
           style="fill:#000000;fill-opacity:1">
          <use
             id="use1453"
             y="0"
             x="19.094999"
             xlink:href="#lx-text9460-glyph1-1"
             width="100%"
             height="100%" />
        </g>
        <g
           id="g1459"
           style="fill:#000000;fill-opacity:1">
          <use
             id="use1457"
             y="0"
             x="50.643002"
             xlink:href="#lx-text9460-glyph0-1"
             width="100%"
             height="100%" />
        </g>
        <g
           id="g1463"
           style="fill:#000000;fill-opacity:1">
          <use
             id="use1461"
             y="-10.845"
             x="61.437"
             xlink:href="#lx-text9460-glyph2-1"
             width="100%"
             height="100%" />
        </g>
      </g>
    </g>
    <g
       id="lx-text9460-7"
       transform="matrix(0.23867595,0,0,0.26349841,201.35726,104.6171)">
      <defs
         id="defs1499">
        <g
           id="g1497">
          <symbol
             id="lx-text9460-7-glyph0-0"
             overflow="visible"
             style="overflow:visible">
            <path
               id="path1467"
               d=""
               style="stroke:none"
               inkscape:connector-curvature="0" />
          </symbol>
          <symbol
             id="lx-text9460-7-glyph0-1"
             overflow="visible"
             style="overflow:visible">
            <path
               id="path1470"
               d="m 6.15625,-11.953125 h 2.8125 c 0.59375,0 0.890625,0 0.890625,-0.59375 0,-0.34375 -0.296875,-0.34375 -0.828125,-0.34375 H 6.390625 C 7.46875,-17.125 7.625,-17.71875 7.625,-17.90625 c 0,-0.5 -0.359375,-0.8125 -0.875,-0.8125 -0.078125,0 -0.921875,0.03125 -1.1875,1.078125 l -1.171875,4.75 h -2.8125 c -0.59375,0 -0.890625,0 -0.890625,0.578125 0,0.359375 0.234375,0.359375 0.84375,0.359375 h 2.625 c -2.15625,8.484375 -2.265625,9 -2.265625,9.53125 0,1.609375 1.125,2.75 2.75,2.75 3.046875,0 4.75,-4.359375 4.75,-4.609375 0,-0.296875 -0.25,-0.296875 -0.359375,-0.296875 -0.265625,0 -0.296875,0.09375 -0.453125,0.421875 -1.28125,3.109375 -2.875,3.828125 -3.890625,3.828125 -0.625,0 -0.921875,-0.390625 -0.921875,-1.375 0,-0.71875 0.0625,-0.921875 0.1875,-1.4375 z m 0,0"
               style="stroke:none"
               inkscape:connector-curvature="0" />
          </symbol>
          <symbol
             id="lx-text9460-7-glyph0-2"
             overflow="visible"
             style="overflow:visible">
            <path
               id="path1473"
               d="m 8.90625,-6.75 c 0.484375,0 1.015625,0 1.015625,-0.515625 C 9.921875,-7.6875 9.5625,-7.6875 9.0625,-7.6875 H 4.21875 c 0.71875,-2.53125 2.390625,-4.265625 5.109375,-4.265625 H 10.25 c 0.515625,0 0.984375,0 0.984375,-0.515625 0,-0.421875 -0.390625,-0.421875 -0.890625,-0.421875 H 9.296875 c -3.890625,0 -7.890625,3 -7.890625,7.5625 0,3.296875 2.234375,5.65625 5.40625,5.65625 1.953125,0 3.890625,-1.1875 3.890625,-1.53125 0,-0.078125 -0.03125,-0.40625 -0.296875,-0.40625 -0.0625,0 -0.125,0 -0.390625,0.171875 -0.921875,0.59375 -2.03125,1.109375 -3.140625,1.109375 -1.734375,0 -3.234375,-1.25 -3.234375,-3.890625 0,-1.046875 0.25,-2.171875 0.328125,-2.53125 z m 0,0"
               style="stroke:none"
               inkscape:connector-curvature="0" />
          </symbol>
          <symbol
             id="lx-text9460-7-glyph0-3"
             overflow="visible"
             style="overflow:visible">
            <path
               id="path1476"
               d="M 7.890625,-13.0625 C 4.15625,-12.171875 1.25,-8.28125 1.25,-4.65625 c 0,2.859375 1.921875,5.015625 4.734375,5.015625 3.484375,0 5.96875,-4.6875 5.96875,-8.8125 0,-2.71875 -1.1875,-4.21875 -2.203125,-5.5625 -1.078125,-1.34375 -2.84375,-3.59375 -2.84375,-4.90625 0,-0.65625 0.59375,-1.375 1.640625,-1.375 0.90625,0 1.5,0.390625 2.125,0.8125 0.59375,0.359375 1.1875,0.75 1.640625,0.75 0.75,0 1.203125,-0.71875 1.203125,-1.203125 0,-0.65625 -0.484375,-0.75 -1.5625,-0.984375 C 10.40625,-21.25 9.984375,-21.25 9.5,-21.25 c -2.328125,0 -3.40625,1.28125 -3.40625,3.078125 0,1.609375 0.875,3.28125 1.796875,5.109375 z M 8.25,-12.40625 c 0.75,1.375 1.640625,2.984375 1.640625,5.140625 0,1.96875 -1.125,6.96875 -3.90625,6.96875 -1.65625,0 -2.875,-1.25 -2.875,-3.53125 0,-1.875 1.109375,-7.5 5.140625,-8.578125 z m 0,0"
               style="stroke:none"
               inkscape:connector-curvature="0" />
          </symbol>
          <symbol
             id="lx-text9460-7-glyph1-0"
             overflow="visible"
             style="overflow:visible">
            <path
               id="path1479"
               d=""
               style="stroke:none"
               inkscape:connector-curvature="0" />
          </symbol>
          <symbol
             id="lx-text9460-7-glyph1-1"
             overflow="visible"
             style="overflow:visible">
            <path
               id="path1482"
               d="m 20.53125,-9.78125 c 0.453125,0 1.015625,0 1.015625,-0.59375 0,-0.59375 -0.5625,-0.59375 -0.984375,-0.59375 H 2.65625 c -0.421875,0 -0.984375,0 -0.984375,0.59375 0,0.59375 0.5625,0.59375 1.015625,0.59375 z m 0.03125,5.8125 c 0.421875,0 0.984375,0 0.984375,-0.609375 0,-0.59375 -0.5625,-0.59375 -1.015625,-0.59375 H 2.6875 c -0.453125,0 -1.015625,0 -1.015625,0.59375 0,0.609375 0.5625,0.609375 0.984375,0.609375 z m 0,0"
               style="stroke:none"
               inkscape:connector-curvature="0" />
          </symbol>
          <symbol
             id="lx-text9460-7-glyph2-0"
             overflow="visible"
             style="overflow:visible">
            <path
               id="path1485"
               d=""
               style="stroke:none"
               inkscape:connector-curvature="0" />
          </symbol>
          <symbol
             id="lx-text9460-7-glyph2-1"
             overflow="visible"
             style="overflow:visible">
            <path
               id="path1488"
               d="m 15.5625,-4.734375 c 0.34375,0 0.84375,0 0.84375,-0.5 C 16.40625,-5.75 15.921875,-5.75 15.5625,-5.75 H 3.09375 c -0.328125,0 -0.828125,0 -0.828125,0.5 0,0.515625 0.46875,0.515625 0.828125,0.515625 z m 0,0"
               style="stroke:none"
               inkscape:connector-curvature="0" />
          </symbol>
          <symbol
             id="lx-text9460-7-glyph3-0"
             overflow="visible"
             style="overflow:visible">
            <path
               id="path1491"
               d=""
               style="stroke:none"
               inkscape:connector-curvature="0" />
          </symbol>
          <symbol
             id="lx-text9460-7-glyph3-1"
             overflow="visible"
             style="overflow:visible">
            <path
               id="path1494"
               d="m 7.015625,-13.3125 c 0,-0.5625 -0.046875,-0.578125 -0.640625,-0.578125 -1.328125,1.3125 -3.234375,1.34375 -4.09375,1.34375 v 0.75 c 0.5,0 1.875,0 3.03125,-0.59375 V -1.71875 c 0,0.6875 0,0.96875 -2.09375,0.96875 H 2.421875 V 0 c 0.375,-0.015625 2.953125,-0.078125 3.734375,-0.078125 0.640625,0 3.28125,0.0625 3.734375,0.078125 V -0.75 H 9.09375 c -2.078125,0 -2.078125,-0.28125 -2.078125,-0.96875 z m 0,0"
               style="stroke:none"
               inkscape:connector-curvature="0" />
          </symbol>
        </g>
      </defs>
      <g
         id="lx-text9460-7-surface1">
        <g
           id="g1503"
           style="fill:#000000;fill-opacity:1">
          <use
             id="use1501"
             y="0"
             x="0"
             xlink:href="#lx-text9460-7-glyph0-1"
             width="100%"
             height="100%" />
        </g>
        <g
           id="g1507"
           style="fill:#000000;fill-opacity:1">
          <use
             id="use1505"
             y="0"
             x="19.094999"
             xlink:href="#lx-text9460-7-glyph1-1"
             width="100%"
             height="100%" />
        </g>
        <g
           id="g1511"
           style="fill:#000000;fill-opacity:1">
          <use
             id="use1509"
             y="0"
             x="50.643002"
             xlink:href="#lx-text9460-7-glyph0-2"
             width="100%"
             height="100%" />
        </g>
        <g
           id="g1515"
           style="fill:#000000;fill-opacity:1">
          <use
             id="use1513"
             y="-10.845"
             x="62.775002"
             xlink:href="#lx-text9460-7-glyph2-1"
             width="100%"
             height="100%" />
        </g>
        <g
           id="g1519"
           style="fill:#000000;fill-opacity:1">
          <use
             id="use1517"
             y="-10.845"
             x="81.456001"
             xlink:href="#lx-text9460-7-glyph3-1"
             width="100%"
             height="100%" />
        </g>
        <g
           id="g1523"
           style="fill:#000000;fill-opacity:1">
          <use
             id="use1521"
             y="0"
             x="94.862999"
             xlink:href="#lx-text9460-7-glyph0-3"
             width="100%"
             height="100%" />
        </g>
        <g
           id="g1527"
           style="fill:#000000;fill-opacity:1">
          <use
             id="use1525"
             y="4.4850001"
             x="108.147"
             xlink:href="#lx-text9460-7-glyph2-1"
             width="100%"
             height="100%" />
        </g>
      </g>
    </g>
    <g
       id="lx-text9460-1"
       transform="matrix(0.24165056,0,0,0.24433756,260.6159,104.09954)">
      <defs
         id="defs1548">
        <g
           id="g1546">
          <symbol
             id="lx-text9460-1-glyph0-0"
             overflow="visible">
            <path
               id="path1531"
               d=""
               style="stroke:none;" />
          </symbol>
          <symbol
             id="lx-text9460-1-glyph0-1"
             overflow="visible">
            <path
               id="path1534"
               d="M 6.15625 -11.953125 L 8.96875 -11.953125 C 9.5625 -11.953125 9.859375 -11.953125 9.859375 -12.546875 C 9.859375 -12.890625 9.5625 -12.890625 9.03125 -12.890625 L 6.390625 -12.890625 C 7.46875 -17.125 7.625 -17.71875 7.625 -17.90625 C 7.625 -18.40625 7.265625 -18.71875 6.75 -18.71875 C 6.671875 -18.71875 5.828125 -18.6875 5.5625 -17.640625 L 4.390625 -12.890625 L 1.578125 -12.890625 C 0.984375 -12.890625 0.6875 -12.890625 0.6875 -12.3125 C 0.6875 -11.953125 0.921875 -11.953125 1.53125 -11.953125 L 4.15625 -11.953125 C 2 -3.46875 1.890625 -2.953125 1.890625 -2.421875 C 1.890625 -0.8125 3.015625 0.328125 4.640625 0.328125 C 7.6875 0.328125 9.390625 -4.03125 9.390625 -4.28125 C 9.390625 -4.578125 9.140625 -4.578125 9.03125 -4.578125 C 8.765625 -4.578125 8.734375 -4.484375 8.578125 -4.15625 C 7.296875 -1.046875 5.703125 -0.328125 4.6875 -0.328125 C 4.0625 -0.328125 3.765625 -0.71875 3.765625 -1.703125 C 3.765625 -2.421875 3.828125 -2.625 3.953125 -3.140625 Z M 6.15625 -11.953125 "
               style="stroke:none;" />
          </symbol>
          <symbol
             id="lx-text9460-1-glyph0-2"
             overflow="visible">
            <path
               id="path1537"
               d="M 12.765625 -18.140625 C 12.96875 -18.984375 13.09375 -19.15625 13.453125 -19.25 C 13.71875 -19.3125 14.703125 -19.3125 15.328125 -19.3125 C 18.359375 -19.3125 19.703125 -19.1875 19.703125 -16.859375 C 19.703125 -16.40625 19.578125 -15.25 19.453125 -14.46875 C 19.421875 -14.34375 19.375 -13.984375 19.375 -13.90625 C 19.375 -13.71875 19.453125 -13.515625 19.734375 -13.515625 C 20.0625 -13.515625 20.109375 -13.75 20.171875 -14.203125 L 20.984375 -19.40625 C 21.015625 -19.515625 21.046875 -19.8125 21.046875 -19.90625 C 21.046875 -20.234375 20.75 -20.234375 20.234375 -20.234375 L 3.640625 -20.234375 C 2.921875 -20.234375 2.90625 -20.203125 2.6875 -19.640625 L 0.890625 -14.375 C 0.859375 -14.3125 0.71875 -13.90625 0.71875 -13.84375 C 0.71875 -13.65625 0.859375 -13.515625 1.078125 -13.515625 C 1.375 -13.515625 1.40625 -13.65625 1.578125 -14.140625 C 3.203125 -18.765625 3.96875 -19.3125 8.40625 -19.3125 L 9.5625 -19.3125 C 10.40625 -19.3125 10.40625 -19.1875 10.40625 -18.953125 C 10.40625 -18.765625 10.3125 -18.40625 10.28125 -18.328125 L 6.28125 -2.359375 C 6.015625 -1.25 5.921875 -0.921875 2.71875 -0.921875 C 1.640625 -0.921875 1.46875 -0.921875 1.46875 -0.359375 C 1.46875 0 1.796875 0 1.96875 0 C 2.78125 0 3.609375 -0.0625 4.421875 -0.0625 C 5.265625 -0.0625 6.125 -0.09375 6.96875 -0.09375 C 7.796875 -0.09375 8.640625 -0.0625 9.453125 -0.0625 C 10.3125 -0.0625 11.203125 0 12.046875 0 C 12.34375 0 12.703125 0 12.703125 -0.59375 C 12.703125 -0.921875 12.46875 -0.921875 11.6875 -0.921875 C 10.9375 -0.921875 10.546875 -0.921875 9.78125 -0.984375 C 8.90625 -1.078125 8.671875 -1.171875 8.671875 -1.640625 C 8.671875 -1.671875 8.671875 -1.828125 8.78125 -2.265625 Z M 12.765625 -18.140625 "
               style="stroke:none;" />
          </symbol>
          <symbol
             id="lx-text9460-1-glyph1-0"
             overflow="visible">
            <path
               id="path1540"
               d=""
               style="stroke:none;" />
          </symbol>
          <symbol
             id="lx-text9460-1-glyph1-1"
             overflow="visible">
            <path
               id="path1543"
               d="M 20.53125 -9.78125 C 20.984375 -9.78125 21.546875 -9.78125 21.546875 -10.375 C 21.546875 -10.96875 20.984375 -10.96875 20.5625 -10.96875 L 2.65625 -10.96875 C 2.234375 -10.96875 1.671875 -10.96875 1.671875 -10.375 C 1.671875 -9.78125 2.234375 -9.78125 2.6875 -9.78125 Z M 20.5625 -3.96875 C 20.984375 -3.96875 21.546875 -3.96875 21.546875 -4.578125 C 21.546875 -5.171875 20.984375 -5.171875 20.53125 -5.171875 L 2.6875 -5.171875 C 2.234375 -5.171875 1.671875 -5.171875 1.671875 -4.578125 C 1.671875 -3.96875 2.234375 -3.96875 2.65625 -3.96875 Z M 20.5625 -3.96875 "
               style="stroke:none;" />
          </symbol>
        </g>
      </defs>
      <g
         id="lx-text9460-1-surface1">
        <g
           id="g1552"
           style="fill:rgb(0%,0%,0%);fill-opacity:1;">
          <use
             id="use1550"
             y="0.0"
             x="0.0"
             xlink:href="#lx-text9460-1-glyph0-1" />
        </g>
        <g
           id="g1556"
           style="fill:rgb(0%,0%,0%);fill-opacity:1;">
          <use
             id="use1554"
             y="0.0"
             x="19.095"
             xlink:href="#lx-text9460-1-glyph1-1" />
        </g>
        <g
           id="g1560"
           style="fill:rgb(0%,0%,0%);fill-opacity:1;">
          <use
             id="use1558"
             y="0.0"
             x="50.643"
             xlink:href="#lx-text9460-1-glyph0-2" />
        </g>
      </g>
    </g>
    <g
       id="lx-text9460-5"
       transform="matrix(0.25272422,0,0,0.27331307,32.69391,103.03206)">
      <defs
         id="defs1581">
        <g
           id="g1579">
          <symbol
             id="lx-text9460-5-glyph0-0"
             overflow="visible"
             style="overflow:visible">
            <path
               id="path1564"
               d=""
               style="stroke:none"
               inkscape:connector-curvature="0" />
          </symbol>
          <symbol
             id="lx-text9460-5-glyph0-1"
             overflow="visible"
             style="overflow:visible">
            <path
               id="path1567"
               d="m 6.15625,-11.953125 h 2.8125 c 0.59375,0 0.890625,0 0.890625,-0.59375 0,-0.34375 -0.296875,-0.34375 -0.828125,-0.34375 H 6.390625 C 7.46875,-17.125 7.625,-17.71875 7.625,-17.90625 c 0,-0.5 -0.359375,-0.8125 -0.875,-0.8125 -0.078125,0 -0.921875,0.03125 -1.1875,1.078125 l -1.171875,4.75 h -2.8125 c -0.59375,0 -0.890625,0 -0.890625,0.578125 0,0.359375 0.234375,0.359375 0.84375,0.359375 h 2.625 c -2.15625,8.484375 -2.265625,9 -2.265625,9.53125 0,1.609375 1.125,2.75 2.75,2.75 3.046875,0 4.75,-4.359375 4.75,-4.609375 0,-0.296875 -0.25,-0.296875 -0.359375,-0.296875 -0.265625,0 -0.296875,0.09375 -0.453125,0.421875 -1.28125,3.109375 -2.875,3.828125 -3.890625,3.828125 -0.625,0 -0.921875,-0.390625 -0.921875,-1.375 0,-0.71875 0.0625,-0.921875 0.1875,-1.4375 z m 0,0"
               style="stroke:none"
               inkscape:connector-curvature="0" />
          </symbol>
          <symbol
             id="lx-text9460-5-glyph1-0"
             overflow="visible"
             style="overflow:visible">
            <path
               id="path1570"
               d=""
               style="stroke:none"
               inkscape:connector-curvature="0" />
          </symbol>
          <symbol
             id="lx-text9460-5-glyph1-1"
             overflow="visible"
             style="overflow:visible">
            <path
               id="path1573"
               d="m 20.53125,-9.78125 c 0.453125,0 1.015625,0 1.015625,-0.59375 0,-0.59375 -0.5625,-0.59375 -0.984375,-0.59375 H 2.65625 c -0.421875,0 -0.984375,0 -0.984375,0.59375 0,0.59375 0.5625,0.59375 1.015625,0.59375 z m 0.03125,5.8125 c 0.421875,0 0.984375,0 0.984375,-0.609375 0,-0.59375 -0.5625,-0.59375 -1.015625,-0.59375 H 2.6875 c -0.453125,0 -1.015625,0 -1.015625,0.59375 0,0.609375 0.5625,0.609375 0.984375,0.609375 z m 0,0"
               style="stroke:none"
               inkscape:connector-curvature="0" />
          </symbol>
          <symbol
             id="lx-text9460-5-glyph1-2"
             overflow="visible"
             style="overflow:visible">
            <path
               id="path1576"
               d="m 13.75,-9.5625 c 0,-2.390625 -0.15625,-4.78125 -1.203125,-7 -1.375,-2.859375 -3.8125,-3.34375 -5.078125,-3.34375 -1.796875,0 -3.96875,0.78125 -5.203125,3.5625 -0.953125,2.0625 -1.09375,4.390625 -1.09375,6.78125 0,2.234375 0.109375,4.921875 1.34375,7.203125 1.28125,2.421875 3.46875,3.015625 4.921875,3.015625 1.625,0 3.890625,-0.625 5.203125,-3.46875 C 13.59375,-4.875 13.75,-7.203125 13.75,-9.5625 Z M 7.4375,0 C 6.28125,0 4.515625,-0.75 3.96875,-3.609375 3.640625,-5.40625 3.640625,-8.15625 3.640625,-9.921875 c 0,-1.921875 0,-3.890625 0.25,-5.5 0.5625,-3.5625 2.8125,-3.828125 3.546875,-3.828125 0.984375,0 2.96875,0.53125 3.53125,3.5 0.296875,1.671875 0.296875,3.9375 0.296875,5.828125 0,2.234375 0,4.265625 -0.328125,6.1875 C 10.484375,-0.890625 8.78125,0 7.4375,0 Z m 0,0"
               style="stroke:none"
               inkscape:connector-curvature="0" />
          </symbol>
        </g>
      </defs>
      <g
         id="lx-text9460-5-surface1">
        <g
           id="g1585"
           style="fill:#000000;fill-opacity:1">
          <use
             id="use1583"
             y="0"
             x="0"
             xlink:href="#lx-text9460-5-glyph0-1"
             width="100%"
             height="100%" />
        </g>
        <g
           id="g1589"
           style="fill:#000000;fill-opacity:1">
          <use
             id="use1587"
             y="0"
             x="19.094999"
             xlink:href="#lx-text9460-5-glyph1-1"
             width="100%"
             height="100%" />
        </g>
        <g
           id="g1593"
           style="fill:#000000;fill-opacity:1">
          <use
             id="use1591"
             y="0"
             x="50.650539"
             xlink:href="#lx-text9460-5-glyph1-2"
             width="100%"
             height="100%" />
        </g>
      </g>
    </g>
    <g
       id="lx-text9460-74"
       transform="matrix(0.36998555,0,0,0.31043686,32.770469,140.09683)">
      <defs
         id="defs1611">
        <g
           id="g1609">
          <symbol
             id="lx-text9460-74-glyph0-0"
             overflow="visible"
             style="overflow:visible">
            <path
               id="path1597"
               d=""
               style="stroke:none"
               inkscape:connector-curvature="0" />
          </symbol>
          <symbol
             id="lx-text9460-74-glyph0-1"
             overflow="visible"
             style="overflow:visible">
            <path
               id="path1600"
               d="m 15.484375,-11.15625 c 0.390625,0 1.46875,0 1.46875,-1.015625 0,-0.71875 -0.640625,-0.71875 -1.171875,-0.71875 h -6.8125 c -4.515625,0 -7.828125,4.9375 -7.828125,8.5 0,2.625 1.765625,4.71875 4.484375,4.71875 3.515625,0 7.5,-3.609375 7.5,-8.21875 0,-0.515625 0,-1.9375 -0.921875,-3.265625 z M 5.65625,-0.328125 c -1.46875,0 -2.671875,-1.078125 -2.671875,-3.234375 0,-0.890625 0.359375,-3.34375 1.40625,-5.109375 1.265625,-2.0625 3.046875,-2.484375 4.0625,-2.484375 2.515625,0 2.75,1.984375 2.75,2.90625 0,1.40625 -0.59375,3.859375 -1.609375,5.375 -1.171875,1.765625 -2.78125,2.546875 -3.9375,2.546875 z m 0,0"
               style="stroke:none"
               inkscape:connector-curvature="0" />
          </symbol>
          <symbol
             id="lx-text9460-74-glyph1-0"
             overflow="visible"
             style="overflow:visible">
            <path
               id="path1603"
               d=""
               style="stroke:none"
               inkscape:connector-curvature="0" />
          </symbol>
          <symbol
             id="lx-text9460-74-glyph1-1"
             overflow="visible"
             style="overflow:visible">
            <path
               id="path1606"
               d="m 10.796875,-6.671875 c 0,-2.296875 -0.265625,-3.953125 -1.234375,-5.421875 -0.65625,-0.96875 -1.953125,-1.796875 -3.625,-1.796875 -4.84375,0 -4.84375,5.703125 -4.84375,7.21875 0,1.5 0,7.09375 4.84375,7.09375 4.859375,0 4.859375,-5.59375 4.859375,-7.09375 z m -4.859375,6.5 c -0.953125,0 -2.234375,-0.5625 -2.65625,-2.28125 -0.296875,-1.234375 -0.296875,-2.9375 -0.296875,-4.5 0,-1.515625 0,-3.109375 0.328125,-4.265625 0.4375,-1.640625 1.765625,-2.09375 2.625,-2.09375 1.140625,0 2.21875,0.703125 2.59375,1.90625 0.34375,1.140625 0.359375,2.640625 0.359375,4.453125 0,1.5625 0,3.109375 -0.265625,4.421875 -0.421875,1.90625 -1.84375,2.359375 -2.6875,2.359375 z m 0,0"
               style="stroke:none"
               inkscape:connector-curvature="0" />
          </symbol>
        </g>
      </defs>
      <g
         id="lx-text9460-74-surface1">
        <g
           id="g1615"
           style="fill:#000000;fill-opacity:1">
          <use
             id="use1613"
             y="0"
             x="0"
             xlink:href="#lx-text9460-74-glyph0-1"
             width="100%"
             height="100%" />
        </g>
        <g
           id="g1619"
           style="fill:#000000;fill-opacity:1">
          <use
             id="use1617"
             y="4.4850001"
             x="17.079"
             xlink:href="#lx-text9460-74-glyph1-1"
             width="100%"
             height="100%" />
        </g>
      </g>
    </g>
    <g
       id="lx-text9460-0"
       transform="matrix(0.39673209,0,0,0.30252301,96.361061,140.58691)">
      <defs
         id="defs1637">
        <g
           id="g1635">
          <symbol
             id="lx-text9460-0-glyph0-0"
             overflow="visible"
             style="overflow:visible">
            <path
               id="path1623"
               d=""
               style="stroke:none"
               inkscape:connector-curvature="0" />
          </symbol>
          <symbol
             id="lx-text9460-0-glyph0-1"
             overflow="visible"
             style="overflow:visible">
            <path
               id="path1626"
               d="m 15.484375,-11.15625 c 0.390625,0 1.46875,0 1.46875,-1.015625 0,-0.71875 -0.640625,-0.71875 -1.171875,-0.71875 h -6.8125 c -4.515625,0 -7.828125,4.9375 -7.828125,8.5 0,2.625 1.765625,4.71875 4.484375,4.71875 3.515625,0 7.5,-3.609375 7.5,-8.21875 0,-0.515625 0,-1.9375 -0.921875,-3.265625 z M 5.65625,-0.328125 c -1.46875,0 -2.671875,-1.078125 -2.671875,-3.234375 0,-0.890625 0.359375,-3.34375 1.40625,-5.109375 1.265625,-2.0625 3.046875,-2.484375 4.0625,-2.484375 2.515625,0 2.75,1.984375 2.75,2.90625 0,1.40625 -0.59375,3.859375 -1.609375,5.375 -1.171875,1.765625 -2.78125,2.546875 -3.9375,2.546875 z m 0,0"
               style="stroke:none"
               inkscape:connector-curvature="0" />
          </symbol>
          <symbol
             id="lx-text9460-0-glyph1-0"
             overflow="visible"
             style="overflow:visible">
            <path
               id="path1629"
               d=""
               style="stroke:none"
               inkscape:connector-curvature="0" />
          </symbol>
          <symbol
             id="lx-text9460-0-glyph1-1"
             overflow="visible"
             style="overflow:visible">
            <path
               id="path1632"
               d="M 6.75,-5.203125 C 8.46875,-5.96875 9.25,-6.25 9.765625,-6.5 c 0.40625,-0.171875 0.59375,-0.25 0.59375,-0.65625 0,-0.359375 -0.28125,-0.671875 -0.65625,-0.671875 -0.140625,0 -0.1875,0 -0.4375,0.1875 l -2.84375,1.90625 0.3125,-3.09375 c 0.046875,-0.375 0,-0.90625 -0.625,-0.90625 -0.25,0 -0.65625,0.171875 -0.65625,0.640625 0,0.1875 0.09375,0.8125 0.109375,1.015625 0.046875,0.359375 0.1875,1.859375 0.234375,2.34375 L 2.96875,-7.640625 c -0.203125,-0.125 -0.265625,-0.1875 -0.453125,-0.1875 -0.375,0 -0.65625,0.3125 -0.65625,0.671875 0,0.421875 0.25,0.53125 0.4375,0.609375 l 3.15625,1.3125 c -1.703125,0.75 -2.484375,1.046875 -3,1.296875 -0.40625,0.171875 -0.59375,0.25 -0.59375,0.65625 0,0.359375 0.28125,0.671875 0.65625,0.671875 0.140625,0 0.1875,0 0.4375,-0.1875 l 2.84375,-1.90625 -0.34375,3.359375 c 0,0.46875 0.40625,0.625 0.65625,0.625 0.25,0 0.640625,-0.15625 0.640625,-0.625 0,-0.1875 -0.078125,-0.8125 -0.09375,-1.015625 C 6.609375,-2.71875 6.46875,-4.21875 6.421875,-4.703125 L 8.9375,-3.03125 c 0.546875,0.421875 0.578125,0.421875 0.765625,0.421875 0.375,0 0.65625,-0.3125 0.65625,-0.671875 0,-0.421875 -0.25,-0.53125 -0.4375,-0.609375 z m 0,0"
               style="stroke:none"
               inkscape:connector-curvature="0" />
          </symbol>
        </g>
      </defs>
      <g
         id="lx-text9460-0-surface1">
        <g
           id="g1641"
           style="fill:#000000;fill-opacity:1">
          <use
             id="use1639"
             y="0"
             x="0"
             xlink:href="#lx-text9460-0-glyph0-1"
             width="100%"
             height="100%" />
        </g>
        <g
           id="g1645"
           style="fill:#000000;fill-opacity:1">
          <use
             id="use1643"
             y="-10.845"
             x="18.15"
             xlink:href="#lx-text9460-0-glyph1-1"
             width="100%"
             height="100%" />
        </g>
      </g>
    </g>
    <g
       id="lx-text9460-9"
       transform="matrix(0.3298581,0,0,0.31430533,200.76112,139.10735)">
      <defs
         id="defs1663">
        <g
           id="g1661">
          <symbol
             id="lx-text9460-9-glyph0-0"
             overflow="visible"
             style="overflow:visible">
            <path
               id="path1649"
               d=""
               style="stroke:none"
               inkscape:connector-curvature="0" />
          </symbol>
          <symbol
             id="lx-text9460-9-glyph0-1"
             overflow="visible"
             style="overflow:visible">
            <path
               id="path1652"
               d="m 15.484375,-11.15625 c 0.390625,0 1.46875,0 1.46875,-1.015625 0,-0.71875 -0.640625,-0.71875 -1.171875,-0.71875 h -6.8125 c -4.515625,0 -7.828125,4.9375 -7.828125,8.5 0,2.625 1.765625,4.71875 4.484375,4.71875 3.515625,0 7.5,-3.609375 7.5,-8.21875 0,-0.515625 0,-1.9375 -0.921875,-3.265625 z M 5.65625,-0.328125 c -1.46875,0 -2.671875,-1.078125 -2.671875,-3.234375 0,-0.890625 0.359375,-3.34375 1.40625,-5.109375 1.265625,-2.0625 3.046875,-2.484375 4.0625,-2.484375 2.515625,0 2.75,1.984375 2.75,2.90625 0,1.40625 -0.59375,3.859375 -1.609375,5.375 -1.171875,1.765625 -2.78125,2.546875 -3.9375,2.546875 z m 0,0"
               style="stroke:none"
               inkscape:connector-curvature="0" />
          </symbol>
          <symbol
             id="lx-text9460-9-glyph1-0"
             overflow="visible"
             style="overflow:visible">
            <path
               id="path1655"
               d=""
               style="stroke:none"
               inkscape:connector-curvature="0" />
          </symbol>
          <symbol
             id="lx-text9460-9-glyph1-1"
             overflow="visible"
             style="overflow:visible">
            <path
               id="path1658"
               d="M 9.078125,-1.6875 C 8.96875,-1.28125 8.78125,-0.5625 8.78125,-0.453125 8.78125,0 9.15625,0.203125 9.5,0.203125 c 0.375,0 0.703125,-0.265625 0.8125,-0.453125 0.109375,-0.1875 0.28125,-0.859375 0.375,-1.296875 0.109375,-0.40625 0.34375,-1.359375 0.46875,-1.890625 0.125,-0.453125 0.25,-0.921875 0.34375,-1.390625 0.234375,-0.90625 0.234375,-0.953125 0.65625,-1.59375 0.671875,-1.03125 1.71875,-2.21875 3.34375,-2.21875 1.171875,0 1.234375,0.96875 1.234375,1.46875 0,1.25 -0.890625,3.578125 -1.234375,4.453125 -0.234375,0.578125 -0.3125,0.765625 -0.3125,1.125 0,1.109375 0.921875,1.796875 1.984375,1.796875 2.09375,0 3.015625,-2.875 3.015625,-3.1875 0,-0.28125 -0.265625,-0.28125 -0.328125,-0.28125 -0.296875,0 -0.3125,0.125 -0.40625,0.359375 -0.484375,1.671875 -1.375,2.53125 -2.21875,2.53125 -0.4375,0 -0.515625,-0.296875 -0.515625,-0.734375 0,-0.484375 0.109375,-0.75 0.484375,-1.6875 0.25,-0.65625 1.109375,-2.875 1.109375,-4.046875 0,-0.328125 0,-1.21875 -0.78125,-1.8125 -0.359375,-0.28125 -0.96875,-0.578125 -1.9375,-0.578125 -1.890625,0 -3.046875,1.25 -3.703125,2.125 -0.171875,-1.78125 -1.65625,-2.125 -2.734375,-2.125 -1.734375,0 -2.90625,1.078125 -3.53125,1.90625 -0.140625,-1.4375 -1.375,-1.90625 -2.234375,-1.90625 -0.90625,0 -1.375,0.65625 -1.65625,1.140625 -0.453125,0.765625 -0.75,1.96875 -0.75,2.0625 0,0.28125 0.296875,0.28125 0.359375,0.28125 0.28125,0 0.3125,-0.0625 0.453125,-0.625 0.3125,-1.234375 0.71875,-2.265625 1.53125,-2.265625 0.546875,0 0.6875,0.453125 0.6875,1.03125 0,0.390625 -0.1875,1.171875 -0.328125,1.734375 C 3.53125,-5.3125 3.328125,-4.453125 3.21875,-4 L 2.546875,-1.3125 C 2.46875,-1.046875 2.34375,-0.515625 2.34375,-0.453125 2.34375,0 2.71875,0.203125 3.046875,0.203125 3.4375,0.203125 3.765625,-0.0625 3.875,-0.25 3.96875,-0.4375 4.140625,-1.109375 4.25,-1.546875 4.359375,-1.953125 4.578125,-2.90625 4.703125,-3.4375 c 0.125,-0.453125 0.25,-0.921875 0.359375,-1.390625 0.234375,-0.859375 0.265625,-1.03125 0.875,-1.890625 0.59375,-0.828125 1.578125,-1.921875 3.140625,-1.921875 1.21875,0 1.234375,1.0625 1.234375,1.46875 0,0.515625 -0.0625,0.796875 -0.359375,1.96875 z m 0,0"
               style="stroke:none"
               inkscape:connector-curvature="0" />
          </symbol>
        </g>
      </defs>
      <g
         id="lx-text9460-9-surface1">
        <g
           id="g1667"
           style="fill:#000000;fill-opacity:1">
          <use
             id="use1665"
             y="0"
             x="0"
             xlink:href="#lx-text9460-9-glyph0-1"
             width="100%"
             height="100%" />
        </g>
        <g
           id="g1671"
           style="fill:#000000;fill-opacity:1">
          <use
             id="use1669"
             y="4.4850001"
             x="17.079"
             xlink:href="#lx-text9460-9-glyph1-1"
             width="100%"
             height="100%" />
        </g>
      </g>
    </g>
    <g
       id="lx-text9460-03"
       transform="matrix(0.36698909,0,0,0.31797417,276.66538,139.02241)">
      <defs
         id="defs1689">
        <g
           id="g1687">
          <symbol
             id="lx-text9460-03-glyph0-0"
             overflow="visible"
             style="overflow:visible">
            <path
               id="path1675"
               d=""
               style="stroke:none"
               inkscape:connector-curvature="0" />
          </symbol>
          <symbol
             id="lx-text9460-03-glyph0-1"
             overflow="visible"
             style="overflow:visible">
            <path
               id="path1678"
               d="m 15.484375,-11.15625 c 0.390625,0 1.46875,0 1.46875,-1.015625 0,-0.71875 -0.640625,-0.71875 -1.171875,-0.71875 h -6.8125 c -4.515625,0 -7.828125,4.9375 -7.828125,8.5 0,2.625 1.765625,4.71875 4.484375,4.71875 3.515625,0 7.5,-3.609375 7.5,-8.21875 0,-0.515625 0,-1.9375 -0.921875,-3.265625 z M 5.65625,-0.328125 c -1.46875,0 -2.671875,-1.078125 -2.671875,-3.234375 0,-0.890625 0.359375,-3.34375 1.40625,-5.109375 1.265625,-2.0625 3.046875,-2.484375 4.0625,-2.484375 2.515625,0 2.75,1.984375 2.75,2.90625 0,1.40625 -0.59375,3.859375 -1.609375,5.375 -1.171875,1.765625 -2.78125,2.546875 -3.9375,2.546875 z m 0,0"
               style="stroke:none"
               inkscape:connector-curvature="0" />
          </symbol>
          <symbol
             id="lx-text9460-03-glyph1-0"
             overflow="visible"
             style="overflow:visible">
            <path
               id="path1681"
               d=""
               style="stroke:none"
               inkscape:connector-curvature="0" />
          </symbol>
          <symbol
             id="lx-text9460-03-glyph1-1"
             overflow="visible"
             style="overflow:visible">
            <path
               id="path1684"
               d="m 10.171875,-12.65625 c 0.140625,-0.609375 0.1875,-0.671875 0.640625,-0.71875 0.109375,-0.01563 0.84375,-0.01563 1.265625,-0.01563 1.265625,0 1.8125,0 2.34375,0.171875 0.9375,0.28125 0.984375,0.890625 0.984375,1.65625 0,0.328125 0,0.59375 -0.15625,1.6875 l -0.04687,0.234375 c 0,0.203125 0.15625,0.3125 0.359375,0.3125 0.3125,0 0.359375,-0.1875 0.40625,-0.53125 l 0.5625,-3.984375 c 0,-0.296875 -0.25,-0.296875 -0.625,-0.296875 h -12.875 c -0.515625,0 -0.5625,0 -0.703125,0.4375 L 1,-10 c -0.015625,0.078125 -0.09375,0.265625 -0.09375,0.375 0,0.078125 0.03125,0.296875 0.34375,0.296875 0.28125,0 0.3125,-0.109375 0.4375,-0.5 1.21875,-3.359375 1.90625,-3.5625 5.09375,-3.5625 h 0.875 c 0.625,0 0.65625,0.01563 0.65625,0.203125 0,0.03125 0,0.125 -0.09375,0.453125 l -2.765625,11 c -0.1875,0.765625 -0.25,0.984375 -2.4375,0.984375 -0.75,0 -0.9375,0 -0.9375,0.453125 0,0.0625 0.03125,0.296875 0.34375,0.296875 0.59375,0 1.21875,-0.0625 1.796875,-0.0625 0.59375,0 1.21875,-0.015625 1.8125,-0.015625 0.578125,0 1.296875,0 1.875,0.015625 C 8.46875,-0.046875 9.09375,0 9.671875,0 c 0.15625,0 0.46875,0 0.46875,-0.453125 C 10.140625,-0.75 9.9375,-0.75 9.296875,-0.75 c -0.40625,0 -0.828125,-0.03125 -1.21875,-0.046875 -0.71875,-0.0625 -0.75,-0.140625 -0.75,-0.390625 0,-0.15625 0,-0.1875 0.078125,-0.484375 z m 0,0"
               style="stroke:none"
               inkscape:connector-curvature="0" />
          </symbol>
        </g>
      </defs>
      <g
         id="lx-text9460-03-surface1"
         transform="translate(-44.622054,0.71027951)">
        <g
           id="g1693"
           style="fill:#000000;fill-opacity:1">
          <use
             id="use1691"
             y="0"
             x="0"
             xlink:href="#lx-text9460-03-glyph0-1"
             width="100%"
             height="100%" />
        </g>
        <g
           id="g1697"
           style="fill:#000000;fill-opacity:1">
          <use
             id="use1695"
             y="4.4850001"
             x="17.079"
             xlink:href="#lx-text9460-03-glyph1-1"
             width="100%"
             height="100%" />
        </g>
      </g>
    </g>
    <g
       id="lx-text9460-07"
       transform="matrix(0.54245523,0,0,0.37992868,5.9500931,95.709741)">
      <defs
         id="defs1709">
        <g
           id="g1707">
          <symbol
             id="lx-text9460-07-glyph0-0"
             overflow="visible">
            <path
               id="path1701"
               d=""
               style="stroke:none;" />
          </symbol>
          <symbol
             id="lx-text9460-07-glyph0-1"
             overflow="visible">
            <path
               id="path1704"
               d="M 6.15625 -11.953125 L 8.96875 -11.953125 C 9.5625 -11.953125 9.859375 -11.953125 9.859375 -12.546875 C 9.859375 -12.890625 9.5625 -12.890625 9.03125 -12.890625 L 6.390625 -12.890625 C 7.46875 -17.125 7.625 -17.71875 7.625 -17.90625 C 7.625 -18.40625 7.265625 -18.71875 6.75 -18.71875 C 6.671875 -18.71875 5.828125 -18.6875 5.5625 -17.640625 L 4.390625 -12.890625 L 1.578125 -12.890625 C 0.984375 -12.890625 0.6875 -12.890625 0.6875 -12.3125 C 0.6875 -11.953125 0.921875 -11.953125 1.53125 -11.953125 L 4.15625 -11.953125 C 2 -3.46875 1.890625 -2.953125 1.890625 -2.421875 C 1.890625 -0.8125 3.015625 0.328125 4.640625 0.328125 C 7.6875 0.328125 9.390625 -4.03125 9.390625 -4.28125 C 9.390625 -4.578125 9.140625 -4.578125 9.03125 -4.578125 C 8.765625 -4.578125 8.734375 -4.484375 8.578125 -4.15625 C 7.296875 -1.046875 5.703125 -0.328125 4.6875 -0.328125 C 4.0625 -0.328125 3.765625 -0.71875 3.765625 -1.703125 C 3.765625 -2.421875 3.828125 -2.625 3.953125 -3.140625 Z M 6.15625 -11.953125 "
               style="stroke:none;" />
          </symbol>
        </g>
      </defs>
      <g
         id="lx-text9460-07-surface1">
        <g
           id="g1713"
           style="fill:rgb(0%,0%,0%);fill-opacity:1;">
          <use
             id="use1711"
             y="0.0"
             x="0.0"
             xlink:href="#lx-text9460-07-glyph0-1" />
        </g>
      </g>
    </g>
    <g
       id="lx-text9460-05"
       transform="matrix(0.40696352,0,0,0.43252053,5.5532488,135.33352)">
      <defs
         id="defs1725">
        <g
           id="g1723">
          <symbol
             id="lx-text9460-05-glyph0-0"
             overflow="visible">
            <path
               id="path1717"
               d=""
               style="stroke:none;" />
          </symbol>
          <symbol
             id="lx-text9460-05-glyph0-1"
             overflow="visible">
            <path
               id="path1720"
               d="M 15.484375 -11.15625 C 15.875 -11.15625 16.953125 -11.15625 16.953125 -12.171875 C 16.953125 -12.890625 16.3125 -12.890625 15.78125 -12.890625 L 8.96875 -12.890625 C 4.453125 -12.890625 1.140625 -7.953125 1.140625 -4.390625 C 1.140625 -1.765625 2.90625 0.328125 5.625 0.328125 C 9.140625 0.328125 13.125 -3.28125 13.125 -7.890625 C 13.125 -8.40625 13.125 -9.828125 12.203125 -11.15625 Z M 5.65625 -0.328125 C 4.1875 -0.328125 2.984375 -1.40625 2.984375 -3.5625 C 2.984375 -4.453125 3.34375 -6.90625 4.390625 -8.671875 C 5.65625 -10.734375 7.4375 -11.15625 8.453125 -11.15625 C 10.96875 -11.15625 11.203125 -9.171875 11.203125 -8.25 C 11.203125 -6.84375 10.609375 -4.390625 9.59375 -2.875 C 8.421875 -1.109375 6.8125 -0.328125 5.65625 -0.328125 Z M 5.65625 -0.328125 "
               style="stroke:none;" />
          </symbol>
        </g>
      </defs>
      <g
         id="lx-text9460-05-surface1">
        <g
           id="g1729"
           style="fill:rgb(0%,0%,0%);fill-opacity:1;">
          <use
             id="use1727"
             y="0.0"
             x="0.0"
             xlink:href="#lx-text9460-05-glyph0-1" />
        </g>
      </g>
    </g>
    <g
       id="lx-text9460-4"
       transform="matrix(0.35146352,0,0,0.33798893,49.590989,115.75159)">
      <defs
         id="defs1747">
        <g
           id="g1745">
          <symbol
             id="lx-text9460-4-glyph0-0"
             overflow="visible">
            <path
               id="path1733"
               d=""
               style="stroke:none;" />
          </symbol>
          <symbol
             id="lx-text9460-4-glyph0-1"
             overflow="visible">
            <path
               id="path1736"
               d="M 10.46875 -1.671875 C 10.796875 -0.453125 11.84375 0.328125 13.125 0.328125 C 14.171875 0.328125 14.859375 -0.359375 15.328125 -1.3125 C 15.84375 -2.390625 16.234375 -4.21875 16.234375 -4.28125 C 16.234375 -4.578125 15.96875 -4.578125 15.875 -4.578125 C 15.578125 -4.578125 15.546875 -4.453125 15.453125 -4.03125 C 15.03125 -2.359375 14.46875 -0.328125 13.21875 -0.328125 C 12.578125 -0.328125 12.28125 -0.71875 12.28125 -1.703125 C 12.28125 -2.359375 12.640625 -3.765625 12.890625 -4.8125 L 13.71875 -8.046875 C 13.8125 -8.484375 14.109375 -9.625 14.234375 -10.078125 C 14.375 -10.765625 14.671875 -11.890625 14.671875 -12.078125 C 14.671875 -12.609375 14.25 -12.890625 13.8125 -12.890625 C 13.65625 -12.890625 12.890625 -12.859375 12.640625 -11.84375 C 12.078125 -9.65625 10.765625 -4.421875 10.40625 -2.84375 C 10.375 -2.71875 9.171875 -0.328125 7 -0.328125 C 5.4375 -0.328125 5.140625 -1.671875 5.140625 -2.78125 C 5.140625 -4.453125 5.984375 -6.8125 6.75 -8.875 C 7.109375 -9.78125 7.265625 -10.1875 7.265625 -10.765625 C 7.265625 -12.109375 6.3125 -13.21875 4.8125 -13.21875 C 1.96875 -13.21875 0.859375 -8.875 0.859375 -8.609375 C 0.859375 -8.3125 1.171875 -8.3125 1.21875 -8.3125 C 1.53125 -8.3125 1.546875 -8.375 1.703125 -8.84375 C 2.453125 -11.453125 3.59375 -12.546875 4.71875 -12.546875 C 4.984375 -12.546875 5.46875 -12.53125 5.46875 -11.5625 C 5.46875 -10.84375 5.140625 -9.984375 4.96875 -9.53125 C 3.859375 -6.578125 3.234375 -4.71875 3.234375 -3.265625 C 3.234375 -0.421875 5.296875 0.328125 6.90625 0.328125 C 8.875 0.328125 9.953125 -1.015625 10.46875 -1.671875 Z M 10.46875 -1.671875 "
               style="stroke:none;" />
          </symbol>
          <symbol
             id="lx-text9460-4-glyph1-0"
             overflow="visible">
            <path
               id="path1739"
               d=""
               style="stroke:none;" />
          </symbol>
          <symbol
             id="lx-text9460-4-glyph1-1"
             overflow="visible">
            <path
               id="path1742"
               d="M 9.015625 -7.859375 C 8.46875 -7.734375 8.140625 -7.296875 8.140625 -6.890625 C 8.140625 -6.40625 8.5625 -6.21875 8.828125 -6.21875 C 9.03125 -6.21875 9.828125 -6.34375 9.828125 -7.40625 C 9.828125 -8.765625 8.328125 -9.234375 7.046875 -9.234375 C 3.78125 -9.234375 3.203125 -6.828125 3.203125 -6.171875 C 3.203125 -5.390625 3.640625 -4.890625 3.9375 -4.640625 C 4.484375 -4.21875 4.859375 -4.140625 6.296875 -3.890625 C 6.734375 -3.8125 8.078125 -3.5625 8.078125 -2.515625 C 8.078125 -2.15625 7.84375 -1.359375 6.96875 -0.84375 C 6.15625 -0.375 5.125 -0.375 4.875 -0.375 C 4.03125 -0.375 2.84375 -0.5625 2.359375 -1.25 C 3.046875 -1.34375 3.515625 -1.859375 3.515625 -2.453125 C 3.515625 -2.96875 3.140625 -3.21875 2.703125 -3.21875 C 2.09375 -3.21875 1.484375 -2.734375 1.484375 -1.8125 C 1.484375 -0.5625 2.828125 0.203125 4.859375 0.203125 C 8.703125 0.203125 9.421875 -2.421875 9.421875 -3.25 C 9.421875 -5.171875 7.296875 -5.546875 6.53125 -5.6875 C 6.34375 -5.734375 5.8125 -5.8125 5.6875 -5.859375 C 4.921875 -6 4.546875 -6.4375 4.546875 -6.90625 C 4.546875 -7.390625 4.921875 -7.953125 5.375 -8.25 C 5.9375 -8.59375 6.671875 -8.640625 7.03125 -8.640625 C 7.46875 -8.640625 8.5625 -8.578125 9.015625 -7.859375 Z M 9.015625 -7.859375 "
               style="stroke:none;" />
          </symbol>
        </g>
      </defs>
      <g
         id="lx-text9460-4-surface1">
        <g
           id="g1751"
           style="fill:rgb(0%,0%,0%);fill-opacity:1;">
          <use
             id="use1749"
             y="0.0"
             x="0.0"
             xlink:href="#lx-text9460-4-glyph0-1" />
        </g>
        <g
           id="g1755"
           style="fill:rgb(0%,0%,0%);fill-opacity:1;">
          <use
             id="use1753"
             y="4.485"
             x="17.109"
             xlink:href="#lx-text9460-4-glyph1-1" />
        </g>
      </g>
    </g>
    <g
       id="lx-text9460-037"
       transform="matrix(0.38876946,0,0,0.38204634,135.38313,88.711619)">
      <defs
         id="defs1779">
        <g
           id="g1777">
          <symbol
             id="lx-text9460-037-glyph0-0"
             overflow="visible">
            <path
               id="path1759"
               d=""
               style="stroke:none;" />
          </symbol>
          <symbol
             id="lx-text9460-037-glyph0-1"
             overflow="visible">
            <path
               id="path1762"
               d="M 12.859375 -16.703125 L 12.859375 -17.640625 L 2.0625 -17.640625 L 2.0625 -16.703125 Z M 12.859375 -16.703125 "
               style="stroke:none;" />
          </symbol>
          <symbol
             id="lx-text9460-037-glyph1-0"
             overflow="visible">
            <path
               id="path1765"
               d=""
               style="stroke:none;" />
          </symbol>
          <symbol
             id="lx-text9460-037-glyph1-1"
             overflow="visible">
            <path
               id="path1768"
               d="M 10.46875 -1.671875 C 10.796875 -0.453125 11.84375 0.328125 13.125 0.328125 C 14.171875 0.328125 14.859375 -0.359375 15.328125 -1.3125 C 15.84375 -2.390625 16.234375 -4.21875 16.234375 -4.28125 C 16.234375 -4.578125 15.96875 -4.578125 15.875 -4.578125 C 15.578125 -4.578125 15.546875 -4.453125 15.453125 -4.03125 C 15.03125 -2.359375 14.46875 -0.328125 13.21875 -0.328125 C 12.578125 -0.328125 12.28125 -0.71875 12.28125 -1.703125 C 12.28125 -2.359375 12.640625 -3.765625 12.890625 -4.8125 L 13.71875 -8.046875 C 13.8125 -8.484375 14.109375 -9.625 14.234375 -10.078125 C 14.375 -10.765625 14.671875 -11.890625 14.671875 -12.078125 C 14.671875 -12.609375 14.25 -12.890625 13.8125 -12.890625 C 13.65625 -12.890625 12.890625 -12.859375 12.640625 -11.84375 C 12.078125 -9.65625 10.765625 -4.421875 10.40625 -2.84375 C 10.375 -2.71875 9.171875 -0.328125 7 -0.328125 C 5.4375 -0.328125 5.140625 -1.671875 5.140625 -2.78125 C 5.140625 -4.453125 5.984375 -6.8125 6.75 -8.875 C 7.109375 -9.78125 7.265625 -10.1875 7.265625 -10.765625 C 7.265625 -12.109375 6.3125 -13.21875 4.8125 -13.21875 C 1.96875 -13.21875 0.859375 -8.875 0.859375 -8.609375 C 0.859375 -8.3125 1.171875 -8.3125 1.21875 -8.3125 C 1.53125 -8.3125 1.546875 -8.375 1.703125 -8.84375 C 2.453125 -11.453125 3.59375 -12.546875 4.71875 -12.546875 C 4.984375 -12.546875 5.46875 -12.53125 5.46875 -11.5625 C 5.46875 -10.84375 5.140625 -9.984375 4.96875 -9.53125 C 3.859375 -6.578125 3.234375 -4.71875 3.234375 -3.265625 C 3.234375 -0.421875 5.296875 0.328125 6.90625 0.328125 C 8.875 0.328125 9.953125 -1.015625 10.46875 -1.671875 Z M 10.46875 -1.671875 "
               style="stroke:none;" />
          </symbol>
          <symbol
             id="lx-text9460-037-glyph2-0"
             overflow="visible">
            <path
               id="path1771"
               d=""
               style="stroke:none;" />
          </symbol>
          <symbol
             id="lx-text9460-037-glyph2-1"
             overflow="visible">
            <path
               id="path1774"
               d="M 6.75 -5.203125 C 8.46875 -5.96875 9.25 -6.25 9.765625 -6.5 C 10.171875 -6.671875 10.359375 -6.75 10.359375 -7.15625 C 10.359375 -7.515625 10.078125 -7.828125 9.703125 -7.828125 C 9.5625 -7.828125 9.515625 -7.828125 9.265625 -7.640625 L 6.421875 -5.734375 L 6.734375 -8.828125 C 6.78125 -9.203125 6.734375 -9.734375 6.109375 -9.734375 C 5.859375 -9.734375 5.453125 -9.5625 5.453125 -9.09375 C 5.453125 -8.90625 5.546875 -8.28125 5.5625 -8.078125 C 5.609375 -7.71875 5.75 -6.21875 5.796875 -5.734375 L 2.96875 -7.640625 C 2.765625 -7.765625 2.703125 -7.828125 2.515625 -7.828125 C 2.140625 -7.828125 1.859375 -7.515625 1.859375 -7.15625 C 1.859375 -6.734375 2.109375 -6.625 2.296875 -6.546875 L 5.453125 -5.234375 C 3.75 -4.484375 2.96875 -4.1875 2.453125 -3.9375 C 2.046875 -3.765625 1.859375 -3.6875 1.859375 -3.28125 C 1.859375 -2.921875 2.140625 -2.609375 2.515625 -2.609375 C 2.65625 -2.609375 2.703125 -2.609375 2.953125 -2.796875 L 5.796875 -4.703125 L 5.453125 -1.34375 C 5.453125 -0.875 5.859375 -0.71875 6.109375 -0.71875 C 6.359375 -0.71875 6.75 -0.875 6.75 -1.34375 C 6.75 -1.53125 6.671875 -2.15625 6.65625 -2.359375 C 6.609375 -2.71875 6.46875 -4.21875 6.421875 -4.703125 L 8.9375 -3.03125 C 9.484375 -2.609375 9.515625 -2.609375 9.703125 -2.609375 C 10.078125 -2.609375 10.359375 -2.921875 10.359375 -3.28125 C 10.359375 -3.703125 10.109375 -3.8125 9.921875 -3.890625 Z M 6.75 -5.203125 "
               style="stroke:none;" />
          </symbol>
        </g>
      </defs>
      <g
         id="lx-text9460-037-surface1">
        <g
           id="g1783"
           style="fill:rgb(0%,0%,0%);fill-opacity:1;">
          <use
             id="use1781"
             y="0.0"
             x="1.914"
             xlink:href="#lx-text9460-037-glyph0-1" />
        </g>
        <g
           id="g1787"
           style="fill:rgb(0%,0%,0%);fill-opacity:1;">
          <use
             id="use1785"
             y="0.0"
             x="0.0"
             xlink:href="#lx-text9460-037-glyph1-1" />
        </g>
        <g
           id="g1791"
           style="fill:rgb(0%,0%,0%);fill-opacity:1;">
          <use
             id="use1789"
             y="4.485"
             x="17.109"
             xlink:href="#lx-text9460-037-glyph2-1" />
        </g>
      </g>
    </g>
    <g
       id="lx-text9460-6"
       transform="matrix(0.45996274,0,0,0.4066333,219.59749,76.654069)">
      <defs
         id="defs1809">
        <g
           id="g1807">
          <symbol
             id="lx-text9460-6-glyph0-0"
             overflow="visible">
            <path
               id="path1795"
               d=""
               style="stroke:none;" />
          </symbol>
          <symbol
             id="lx-text9460-6-glyph0-1"
             overflow="visible">
            <path
               id="path1798"
               d="M 10.46875 -1.671875 C 10.796875 -0.453125 11.84375 0.328125 13.125 0.328125 C 14.171875 0.328125 14.859375 -0.359375 15.328125 -1.3125 C 15.84375 -2.390625 16.234375 -4.21875 16.234375 -4.28125 C 16.234375 -4.578125 15.96875 -4.578125 15.875 -4.578125 C 15.578125 -4.578125 15.546875 -4.453125 15.453125 -4.03125 C 15.03125 -2.359375 14.46875 -0.328125 13.21875 -0.328125 C 12.578125 -0.328125 12.28125 -0.71875 12.28125 -1.703125 C 12.28125 -2.359375 12.640625 -3.765625 12.890625 -4.8125 L 13.71875 -8.046875 C 13.8125 -8.484375 14.109375 -9.625 14.234375 -10.078125 C 14.375 -10.765625 14.671875 -11.890625 14.671875 -12.078125 C 14.671875 -12.609375 14.25 -12.890625 13.8125 -12.890625 C 13.65625 -12.890625 12.890625 -12.859375 12.640625 -11.84375 C 12.078125 -9.65625 10.765625 -4.421875 10.40625 -2.84375 C 10.375 -2.71875 9.171875 -0.328125 7 -0.328125 C 5.4375 -0.328125 5.140625 -1.671875 5.140625 -2.78125 C 5.140625 -4.453125 5.984375 -6.8125 6.75 -8.875 C 7.109375 -9.78125 7.265625 -10.1875 7.265625 -10.765625 C 7.265625 -12.109375 6.3125 -13.21875 4.8125 -13.21875 C 1.96875 -13.21875 0.859375 -8.875 0.859375 -8.609375 C 0.859375 -8.3125 1.171875 -8.3125 1.21875 -8.3125 C 1.53125 -8.3125 1.546875 -8.375 1.703125 -8.84375 C 2.453125 -11.453125 3.59375 -12.546875 4.71875 -12.546875 C 4.984375 -12.546875 5.46875 -12.53125 5.46875 -11.5625 C 5.46875 -10.84375 5.140625 -9.984375 4.96875 -9.53125 C 3.859375 -6.578125 3.234375 -4.71875 3.234375 -3.265625 C 3.234375 -0.421875 5.296875 0.328125 6.90625 0.328125 C 8.875 0.328125 9.953125 -1.015625 10.46875 -1.671875 Z M 10.46875 -1.671875 "
               style="stroke:none;" />
          </symbol>
          <symbol
             id="lx-text9460-6-glyph1-0"
             overflow="visible">
            <path
               id="path1801"
               d=""
               style="stroke:none;" />
          </symbol>
          <symbol
             id="lx-text9460-6-glyph1-1"
             overflow="visible">
            <path
               id="path1804"
               d="M 6.75 -5.203125 C 8.46875 -5.96875 9.25 -6.25 9.765625 -6.5 C 10.171875 -6.671875 10.359375 -6.75 10.359375 -7.15625 C 10.359375 -7.515625 10.078125 -7.828125 9.703125 -7.828125 C 9.5625 -7.828125 9.515625 -7.828125 9.265625 -7.640625 L 6.421875 -5.734375 L 6.734375 -8.828125 C 6.78125 -9.203125 6.734375 -9.734375 6.109375 -9.734375 C 5.859375 -9.734375 5.453125 -9.5625 5.453125 -9.09375 C 5.453125 -8.90625 5.546875 -8.28125 5.5625 -8.078125 C 5.609375 -7.71875 5.75 -6.21875 5.796875 -5.734375 L 2.96875 -7.640625 C 2.765625 -7.765625 2.703125 -7.828125 2.515625 -7.828125 C 2.140625 -7.828125 1.859375 -7.515625 1.859375 -7.15625 C 1.859375 -6.734375 2.109375 -6.625 2.296875 -6.546875 L 5.453125 -5.234375 C 3.75 -4.484375 2.96875 -4.1875 2.453125 -3.9375 C 2.046875 -3.765625 1.859375 -3.6875 1.859375 -3.28125 C 1.859375 -2.921875 2.140625 -2.609375 2.515625 -2.609375 C 2.65625 -2.609375 2.703125 -2.609375 2.953125 -2.796875 L 5.796875 -4.703125 L 5.453125 -1.34375 C 5.453125 -0.875 5.859375 -0.71875 6.109375 -0.71875 C 6.359375 -0.71875 6.75 -0.875 6.75 -1.34375 C 6.75 -1.53125 6.671875 -2.15625 6.65625 -2.359375 C 6.609375 -2.71875 6.46875 -4.21875 6.421875 -4.703125 L 8.9375 -3.03125 C 9.484375 -2.609375 9.515625 -2.609375 9.703125 -2.609375 C 10.078125 -2.609375 10.359375 -2.921875 10.359375 -3.28125 C 10.359375 -3.703125 10.109375 -3.8125 9.921875 -3.890625 Z M 6.75 -5.203125 "
               style="stroke:none;" />
          </symbol>
        </g>
      </defs>
      <g
         id="lx-text9460-6-surface1">
        <g
           id="g1813"
           style="fill:rgb(0%,0%,0%);fill-opacity:1;">
          <use
             id="use1811"
             y="0.0"
             x="0.0"
             xlink:href="#lx-text9460-6-glyph0-1" />
        </g>
        <g
           id="g1817"
           style="fill:rgb(0%,0%,0%);fill-opacity:1;">
          <use
             id="use1815"
             y="4.485"
             x="17.109"
             xlink:href="#lx-text9460-6-glyph1-1" />
        </g>
      </g>
    </g>
  </g>
</svg>
